HIERARCHY
ROOT hip
{
  OFFSET 0 0 0
  CHANNELS 6 Xposition Yposition Zposition Zrotation Yrotation Xrotation
  JOINT abdomen
  {
    OFFSET 0 20.6881 -0.73152
    CHANNELS 3 Zrotation Xrotation Yrotation
    JOINT chest
    {
      OFFSET 0 11.7043 -0.48768
      CHANNELS 3 Zrotation Xrotation Yrotation
      JOINT neck
      {
        OFFSET 0 22.1894 -2.19456
        CHANNELS 3 Zrotation Xrotation Yrotation
        JOINT head
        {
          OFFSET -0.24384 7.07133 1.2192
          CHANNELS 3 Zrotation Xrotation Yrotation
          JOINT leftEye
          {
            OFFSET 4.14528 8.04674 8.04672
            CHANNELS 3 Zrotation Xrotation Yrotation
            End Site
            {
              OFFSET 1 0 0
            }
          }
          JOINT rightEye
          {
            OFFSET -3.6576 8.04674 8.04672
            CHANNELS 3 Zrotation Xrotation Yrotation
            End Site
            {
              OFFSET 1 0 0
            }
          }
        }
      }
      JOINT rCollar
      {
        OFFSET -2.68224 19.2634 -4.8768
        CHANNELS 3 Zrotation Xrotation Yrotation
        JOINT rShldr
        {
          OFFSET -8.77824 -1.95073 1.46304
          CHANNELS 3 Zrotation Xrotation Yrotation
          JOINT rForeArm
          {
            OFFSET -28.1742 -1.7115 0.48768
            CHANNELS 3 Zrotation Xrotation Yrotation
            JOINT rHand
            {
              OFFSET -22.5879 0.773209 7.07136
              CHANNELS 3 Zrotation Xrotation Yrotation
              JOINT rThumb1
              {
                OFFSET -1.2192 -0.487915 3.41376
                CHANNELS 3 Zrotation Xrotation Yrotation
                JOINT rThumb2
                {
                  OFFSET -3.37035 -0.52449 3.41376
                  CHANNELS 3 Zrotation Xrotation Yrotation
                  End Site
                  {
                    OFFSET -1.78271 -1.18214 1.43049
                  }
                }
              }
              JOINT rIndex1
              {
                OFFSET -7.75947 0.938293 5.60832
                CHANNELS 3 Zrotation Xrotation Yrotation
                JOINT rIndex2
                {
                  OFFSET -2.54057 -0.884171 1.56538
                  CHANNELS 3 Zrotation Xrotation Yrotation
                  End Site
                  {
                    OFFSET -1.62519 -0.234802 1.16502
                  }
                }
              }
              JOINT rMid1
              {
                OFFSET -8.24714 1.18213 3.41376
                CHANNELS 3 Zrotation Xrotation Yrotation
                JOINT rMid2
                {
                  OFFSET -3.10165 -0.590103 1.0647
                  CHANNELS 3 Zrotation Xrotation Yrotation
                  End Site
                  {
                    OFFSET -2.48547 -0.328903 0.83742
                  }
                }
              }
              JOINT rRing1
              {
                OFFSET -8.82822 0.546677 1.51678
                CHANNELS 3 Zrotation Xrotation Yrotation
                JOINT rRing2
                {
                  OFFSET -2.60934 -0.819778 -0.0198488
                  CHANNELS 3 Zrotation Xrotation Yrotation
                  End Site
                  {
                    OFFSET -2.33842 -0.294052 0.168128
                  }
                }
              }
              JOINT rPinky1
              {
                OFFSET -8.27202 -0.0477905 -0.4584
                CHANNELS 3 Zrotation Xrotation Yrotation
                JOINT rPinky2
                {
                  OFFSET -1.82734 -0.647385 -0.700984
                  CHANNELS 3 Zrotation Xrotation Yrotation
                  End Site
                  {
                    OFFSET -1.69225 -0.51767 -0.607171
                  }
                }
              }
            }
          }
        }
      }
      JOINT lCollar
      {
        OFFSET 2.68224 19.2634 -4.8768
        CHANNELS 3 Zrotation Xrotation Yrotation
        JOINT lShldr
        {
          OFFSET 8.77824 -1.95073 1.46304
          CHANNELS 3 Zrotation Xrotation Yrotation
          JOINT lForeArm
          {
            OFFSET 28.1742 -1.7115 0.48768
            CHANNELS 3 Zrotation Xrotation Yrotation
            JOINT lHand
            {
              OFFSET 22.5879 0.773209 7.07136
              CHANNELS 3 Zrotation Xrotation Yrotation
              JOINT lThumb1
              {
                OFFSET 1.2192 -0.487915 3.41376
                CHANNELS 3 Zrotation Xrotation Yrotation
                JOINT lThumb2
                {
                  OFFSET 3.37035 -0.52449 3.41376
                  CHANNELS 3 Zrotation Xrotation Yrotation
                  End Site
                  {
                    OFFSET 1.78271 -1.18214 1.43049
                  }
                }
              }
              JOINT lIndex1
              {
                OFFSET 7.75947 0.938293 5.60832
                CHANNELS 3 Zrotation Xrotation Yrotation
                JOINT lIndex2
                {
                  OFFSET 2.54057 -0.884171 1.56538
                  CHANNELS 3 Zrotation Xrotation Yrotation
                  End Site
                  {
                    OFFSET 1.62519 -0.234802 1.16502
                  }
                }
              }
              JOINT lMid1
              {
                OFFSET 8.24714 1.18213 3.41376
                CHANNELS 3 Zrotation Xrotation Yrotation
                JOINT lMid2
                {
                  OFFSET 3.10165 -0.590103 1.0647
                  CHANNELS 3 Zrotation Xrotation Yrotation
                  End Site
                  {
                    OFFSET 2.48547 -0.328903 0.83742
                  }
                }
              }
              JOINT lRing1
              {
                OFFSET 8.82822 0.546677 1.51678
                CHANNELS 3 Zrotation Xrotation Yrotation
                JOINT lRing2
                {
                  OFFSET 2.60934 -0.819778 -0.0198488
                  CHANNELS 3 Zrotation Xrotation Yrotation
                  End Site
                  {
                    OFFSET 2.33842 -0.294052 0.168128
                  }
                }
              }
              JOINT lPinky1
              {
                OFFSET 8.27202 -0.0477905 -0.4584
                CHANNELS 3 Zrotation Xrotation Yrotation
                JOINT lPinky2
                {
                  OFFSET 1.82734 -0.647385 -0.700984
                  CHANNELS 3 Zrotation Xrotation Yrotation
                  End Site
                  {
                    OFFSET 1.69225 -0.51767 -0.607171
                  }
                }
              }
            }
          }
        }
      }
    }
  }
  JOINT rButtock
  {
    OFFSET -8.77824 4.35084 1.2192
    CHANNELS 3 Zrotation Xrotation Yrotation
    JOINT rThigh
    {
      OFFSET 0 -1.70687 -2.19456
      CHANNELS 3 Zrotation Xrotation Yrotation
      JOINT rShin
      {
        OFFSET 0 -36.8199 0.73152
        CHANNELS 3 Zrotation Xrotation Yrotation
        JOINT rFoot
        {
          OFFSET 0.73152 -45.1104 -5.12064
          CHANNELS 3 Zrotation Xrotation Yrotation
          End Site
          {
            OFFSET -1.1221 -3.69964 12.103
          }
        }
      }
    }
  }
  JOINT lButtock
  {
    OFFSET 8.77824 4.35084 1.2192
    CHANNELS 3 Zrotation Xrotation Yrotation
    JOINT lThigh
    {
      OFFSET 0 -1.70687 -2.19456
      CHANNELS 3 Zrotation Xrotation Yrotation
      JOINT lShin
      {
        OFFSET 0 -36.8199 0.73152
        CHANNELS 3 Zrotation Xrotation Yrotation
        JOINT lFoot
        {
          OFFSET -0.73152 -45.1104 -5.12064
          CHANNELS 3 Zrotation Xrotation Yrotation
          End Site
          {
            OFFSET 1.1221 -3.69964 12.103
          }
        }
      }
    }
  }
}
MOTION
Frames:	7
Frame Time:	0.03333
-23.6482 44.9067 56.657199999999996 -1.154816 46.476754 8.473345 -1.611726 18.136263 2.934214 6.721236 -15.141862 -14.37922 -12.98694 30.157751 -75.7559 42.225279 1.938941 25.508015 11.409054 1.029676 10.280393 2.063515 0.021358 1.185903 -78.62126 68.172741 81.903492 12.573476 -10.416303 40.964911 52.398049 3.59724 -175.697664 -148.69253 53.974057 124.408517 -82.484858 36.44556 43.665034 -40.498 5.205717 49.493735 -42.513004 37.60721 32.208607 -6.619602 16.138331 0.692968 1.219609 -1.454232 -0.587389 160.596031 -62.700652 127.130889 -74.298517 69.744682 91.78027 8.785708 3.538751 -4.356077 -145.470493 15.237088 -143.185556 -170.284043 74.486408 -136.292159 155.716634 -3.409753 -163.680422 -69.183537 70.664497 120.87252 153.973684 66.873796 92.681768 5.911108 -2.035367 2.73934 173.487223 -12.23741 -91.346591 -29.726107 -66.079184 -20.766597 21.404506 23.047049 -12.257055 70.822157 40.803745 -61.536039 158.836358 -6.688061 -143.085459 168.048839 -36.912792 -152.185289 -4.89261 -1.058255 2.988866 149.918768 44.526732 -151.678261 142.595828 12.88988 143.601329 57.758651 -62.837569 60.391549 2.573705 3.087134 2.721258 -96.148781 -53.376963 83.193473 123.944295 -59.355333 162.719703 99.828772 -10.432605 171.226709 0.262213 -0.029264 -0.337003 82.710116 -41.70383 80.370295 138.673502 76.460305 148.665917 174.478357 -26.450961 -95.39624
-23.413 44.3709 56.8202 -1.029578 46.662366 8.541188 -1.787357 18.293659 3.239273 6.679589 -15.330479 -14.80803 -5.457434 39.432319 -148.742181 27.661866 43.691477 87.394235 11.505293 0.920061 9.113836 2.334297 0.017016 0.83521 -55.849022 -87.122869 -77.775764 55.369319 60.068576 -45.393059 -98.09677 -32.242226 55.065114 58.756935 -74.491626 43.429206 175.783215 -17.612882 87.341687 179.037652 -12.760848 90.250484 -142.125209 1.697993 116.030465 7.820376 4.978461 -11.14447 -60.16282 59.699106 53.130664 -43.12415 58.820749 34.686594 -0.63373 -4.63097 1.147273 10.925506 -7.013046 -3.257719 -111.039901 -41.361039 -109.316001 11.370289 12.801479 8.798137 82.877484 70.10872 -85.898878 38.034247 -11.032196 -63.008956 -35.91152 83.008396 175.50185 178.281701 -1.88072 -142.958695 0.952427 1.824407 1.231254 135.811359 -33.466638 -114.420318 13.426175 14.543021 -5.623363 -93.332615 -52.860386 -33.074058 163.858186 -21.622789 -144.618061 10.283115 44.024922 -7.305425 140.047819 -5.18138 174.461599 135.047839 -35.351568 165.796232 7.849694 -22.508343 8.749452 -28.230864 60.491057 7.945513 178.490575 72.908693 -0.0 146.403044 -13.363613 -117.977515 -106.650364 -42.762736 -6.061469 179.97273 26.396469 -87.255129 0.001404 0.253329 -0.317433 84.246596 -41.785724 82.661315 142.234734 64.071065 31.76901 -27.65342 26.961779 -160.167625
-23.1867 43.824600000000004 57.001599999999996 -1.020391 46.621602 8.493918 -1.326652 13.802425 -168.817899 -4.701505 11.524697 156.239245 6.761351 23.430411 59.365719 -33.842804 -9.616953 -114.046368 11.327607 0.781734 7.870077 2.610366 0.024942 1.094679 -2.222109 10.846445 3.407737 -133.153594 -8.295813 161.515418 -37.955132 -12.107129 -163.264347 156.132796 -57.890348 133.890244 1.989637 -5.620015 0.617248 -60.239926 -87.626882 -127.277632 -47.422677 39.647671 35.604943 -178.024632 -25.460535 110.758984 -158.311983 -0.263583 142.024715 -160.584444 1.564644 143.978723 -0.74364 -1.169068 1.866013 10.192413 14.490351 -0.408763 47.230706 86.305615 -8.133958 0.52268 4.914499 -6.302611 155.49903 -4.350754 -163.911418 -132.587198 -2.119501 158.852033 6.407509 27.266702 -113.743836 5.409632 -1.432429 2.198336 121.576426 31.425942 -73.068938 -90.220215 -51.982673 -49.976679 -88.060178 -77.090026 -42.752484 174.649601 -64.523169 -118.984185 35.190183 51.724926 -30.332726 177.050441 -26.521522 -141.972461 -4.672725 12.001852 -0.507328 0.462188 -0.04051 -4.19299 3.168912 -13.318083 3.700953 150.120204 3.782885 130.831002 -161.150118 72.193373 -14.987539 141.191864 -16.287264 -91.957866 -106.85518 -20.066071 -30.227136 135.325265 -32.093216 -155.334291 -0.03905 0.676967 -0.059636 87.136134 -43.32602 175.081164 101.850958 -20.869379 -52.270368 -64.337073 2.027431 -21.727235
-22.9876 43.371900000000004 57.1936 -0.976694 46.702088 8.607335 -0.340265 14.431714 -140.130193 2.752934 12.063123 126.511772 -11.651925 35.598224 -111.412799 41.753841 25.458076 53.599548 10.82886 0.586527 6.182224 2.90646 0.045016 1.774284 -142.399093 38.92358 146.277155 161.568667 -10.166161 150.192233 -14.107 -20.640981 103.46175 -2.573165 -10.264263 -1.609411 77.759986 -49.205467 32.563497 -102.16871 39.876599 58.62914 -147.334255 -5.870623 119.111102 -16.775732 43.92552 3.971603 -151.360684 17.777676 137.41733 -2.989011 17.511584 2.15835 -0.582457 -2.784785 0.757281 6.744734 -62.499218 -13.55208 -7.469934 -14.512309 -6.63974 -142.711065 -14.663117 -140.04002 144.19308 40.375053 -149.536657 -114.147715 -24.173309 -157.46603 -174.081521 -18.472348 -32.427049 177.907399 1.68954 -143.214271 153.422496 8.570962 -88.618387 155.527126 -6.546326 -77.744984 21.939792 24.056423 -11.284407 -92.481888 -51.27781 -35.144074 159.739425 -6.816591 -143.282016 170.592732 -41.194188 -149.988004 140.291036 -11.643916 172.051248 144.430383 -9.371854 174.485923 20.605697 -37.603161 20.640233 22.410066 -21.504766 17.262418 4.673339 2.811283 4.902303 -100.085228 -52.117483 168.347526 -104.612818 -19.090696 -173.084392 -39.871917 -58.661031 -108.208212 98.036211 56.112527 49.042222 -100.634839 -33.863042 -180.0 -140.082301 -57.973607 -138.447211 165.973764 2.197263 158.948215
-22.8304 43.010999999999996 57.382999999999996 -0.875646 46.809794 8.840377 -2.229944 18.723273 3.99224 6.527377 -15.60485 -16.028803 7.642308 35.331558 131.95717 -32.968463 36.240912 -172.89164 10.537711 0.41394 4.486386 3.375586 0.080846 2.743185 -87.274915 66.825297 90.135222 92.598204 -50.343607 85.93292 64.052802 25.002046 125.261631 -113.723808 67.496862 92.167712 -174.303798 -8.30326 89.371762 -122.93927 7.505569 54.356487 -164.34792 -37.287412 123.538858 -117.962437 47.607555 100.818142 -145.229568 29.471517 132.587723 2.582036 0.12937 -0.751881 -0.343102 -2.734452 0.451137 7.846765 37.911622 3.997226 19.916256 67.386696 11.149717 178.675736 73.193506 -139.284518 -0.461684 -1.431061 2.360859 100.560581 -18.545333 -151.480788 -9.574352 29.94906 145.255676 179.335224 -1.920257 -143.655308 93.449012 39.008508 -54.039945 -25.041151 -31.289274 -21.639398 161.498828 -28.797925 -124.20553 170.953799 -16.76913 -125.437462 16.338948 35.904111 -12.561459 1.045761 -0.68044 -3.868286 140.988837 -11.709266 172.185847 -23.871138 56.815313 7.059916 152.468991 56.824721 154.803317 127.105754 -21.16097 139.002261 178.161417 73.413108 -0.0 143.771641 -14.641661 86.323265 102.498585 6.399409 -1.302265 -22.209571 -23.797337 -74.172756 -169.214094 74.602073 -8.773246 -135.805295 -7.874389 92.102712 101.049359 -8.991282 -107.763252 -169.23442 -19.29914 -36.642873
-22.7259 42.784 57.56869999999999 -0.699032 46.84645 9.180518 -2.176821 18.797467 -0.0 7.389877 -15.096724 -12.127877 -0.016222 20.184757 24.022863 -15.125496 -28.61571 -77.669261 10.422935 0.266521 2.921466 4.012311 0.12343 3.522618 -7.172078 25.234498 8.825884 -119.169155 23.374873 149.180288 4.916963 -30.407215 -141.312764 179.425283 -7.81007 144.33192 -82.594624 38.245665 43.275341 -68.741683 0.588329 64.219329 88.355334 -76.416506 41.726838 -9.442107 39.924057 10.838535 0.063789 -0.148287 0.109076 -172.933955 -31.38241 142.602644 -145.296776 1.366249 179.201438 -153.049494 -35.409621 -176.039006 17.463115 61.846419 10.742587 -2.111684 0.007926 -0.084743 155.132265 -3.587891 -164.032856 50.464792 11.535128 23.461334 67.15358 38.528544 99.502272 -144.47634 -65.296122 -123.918939 174.742479 -13.718402 -90.653869 47.424484 -12.845776 -8.196322 137.91203 13.580252 -112.207654 2.955767 -3.134502 3.891931 -176.107532 -66.607936 -140.029457 140.457671 37.496878 -134.254023 49.656709 74.655703 -68.945963 152.930564 -52.609309 167.115433 127.353709 -28.042237 127.301827 148.284405 -17.184298 143.915776 178.571863 73.56145 0.0 143.720519 -15.957851 110.533593 105.496027 -3.856096 179.32122 -173.899817 27.593801 -95.985652 -160.531823 74.057965 -15.756372 -138.338287 -7.048833 82.147419 101.03862 -0.647748 -89.208883 127.254432 -6.540908 -6.745962
-22.682299999999998 42.6932 57.762800000000006 -0.443302 46.770214 9.613507 -2.321211 18.878398 0.659864 7.183065 -15.128654 -12.936618 7.952635 26.911565 80.920748 -40.164474 2.708681 -130.509148 10.495925 0.161454 1.757636 4.734974 0.167672 4.053857 -0.640897 0.056191 1.699154 40.089292 19.630256 11.82893 3.141652 -51.876483 108.529882 -8.273394 7.847277 -0.587359 -96.238106 37.518781 53.050101 -152.284454 -36.65831 80.093668 -110.429617 35.017608 91.494739 84.882655 -68.750606 41.299897 -36.224753 51.553303 30.175198 -83.966484 63.878211 74.856003 -0.247002 -1.942447 0.842212 -152.268668 -44.345181 -178.19279 -152.322261 25.533264 -143.808386 -151.192243 14.810735 -139.16796 132.437114 56.048875 -137.269261 9.188287 -50.615766 -58.01798 73.307575 -55.281029 -40.855883 -5.552564 -31.516724 0.073437 102.598776 36.801213 -60.846112 155.1078 -27.864573 -80.171067 162.427097 -28.708171 -123.691364 156.943385 18.596283 -118.649434 -63.822978 -81.617976 -34.529063 52.130677 62.08294 -52.153909 -2.271506 7.186291 0.126939 157.50202 19.930521 -166.913323 23.592202 -40.876542 22.081244 15.384364 -8.917505 12.958378 -2.792563 2.138389 -1.422949 -98.810491 -57.289187 80.281586 141.613169 -70.403842 55.818026 -175.895183 -33.218793 96.541694 6.61988 1.378269 6.737616 80.508495 -50.02762 78.625355 165.837451 71.955651 88.447747 -153.692664 60.801274 -117.529731
